<svg xmlns="http://www.w3.org/2000/svg" xmlns:xlink="http://www.w3.org/1999/xlink"  zoomAndPan="magnify" viewBox="0 0 75 37.5"  preserveAspectRatio="xMidYMid meet" version="1.0"><defs><g/><clipPath id="5755fe0783"><path d="M 0.492188 28 L 61 28 L 61 37 L 0.492188 37 Z M 0.492188 28 " clip-rule="nonzero"/></clipPath></defs><g clip-path="url(#5755fe0783)"><path stroke-linecap="butt" transform="matrix(0.737213, 0, 0, 0.740132, 0.493396, 28.229343)" fill="none" stroke-linejoin="miter" d="M -0.00163865 5.500966 L 75.308346 5.500966 " stroke="#000000" stroke-width="11" stroke-opacity="1" stroke-miterlimit="4"/></g><g fill="#000000" fill-opacity="1"><g transform="translate(0.493396, 23.874608)"><g><path d="M 1.765625 -17.609375 L 6.734375 -17.609375 L 6.734375 0 L 1.765625 0 Z M 1.765625 -17.609375 "/></g></g></g><g fill="#000000" fill-opacity="1"><g transform="translate(11.212017, 23.874608)"><g><path d="M 9.453125 -4.671875 L 6.734375 -4.671875 L 6.734375 0 L 1.765625 0 L 1.765625 -17.609375 L 9.8125 -17.609375 C 11.40625 -17.609375 12.785156 -17.34375 13.953125 -16.8125 C 15.128906 -16.289062 16.035156 -15.535156 16.671875 -14.546875 C 17.316406 -13.566406 17.640625 -12.414062 17.640625 -11.09375 C 17.640625 -9.820312 17.335938 -8.710938 16.734375 -7.765625 C 16.140625 -6.816406 15.289062 -6.070312 14.1875 -5.53125 L 17.984375 0 L 12.65625 0 Z M 12.609375 -11.09375 C 12.609375 -11.914062 12.347656 -12.550781 11.828125 -13 C 11.304688 -13.457031 10.535156 -13.6875 9.515625 -13.6875 L 6.734375 -13.6875 L 6.734375 -8.53125 L 9.515625 -8.53125 C 10.535156 -8.53125 11.304688 -8.75 11.828125 -9.1875 C 12.347656 -9.632812 12.609375 -10.269531 12.609375 -11.09375 Z M 12.609375 -11.09375 "/></g></g></g><g fill="#000000" fill-opacity="1"><g transform="translate(32.019953, 23.874608)"><g><path d="M 15.90625 -3.84375 L 15.90625 0 L 1.765625 0 L 1.765625 -17.609375 L 15.578125 -17.609375 L 15.578125 -13.765625 L 6.6875 -13.765625 L 6.6875 -10.796875 L 14.515625 -10.796875 L 14.515625 -7.0625 L 6.6875 -7.0625 L 6.6875 -3.84375 Z M 15.90625 -3.84375 "/></g></g></g><g fill="#000000" fill-opacity="1"><g transform="translate(51.116985, 23.874608)"><g><path d="M 5.515625 -13.65625 L 0.09375 -13.65625 L 0.09375 -17.609375 L 15.875 -17.609375 L 15.875 -13.65625 L 10.484375 -13.65625 L 10.484375 0 L 5.515625 0 Z M 5.515625 -13.65625 "/></g></g></g><g fill="#000000" fill-opacity="1"><g transform="translate(59.10859, 33.75256)"><g><path d="M 3.0625 -0.96875 L 1 -0.96875 L 0.5625 0 L 0 0 L 1.75 -3.890625 L 2.3125 -3.890625 L 4.078125 0 L 3.5 0 Z M 2.875 -1.421875 L 2.03125 -3.328125 L 1.1875 -1.421875 Z M 2.875 -1.421875 "/></g></g></g><g fill="#000000" fill-opacity="1"><g transform="translate(64.565095, 33.75256)"><g><path d="M 2.109375 -3.890625 C 2.609375 -3.890625 3.003906 -3.769531 3.296875 -3.53125 C 3.585938 -3.289062 3.734375 -2.957031 3.734375 -2.53125 C 3.734375 -2.113281 3.585938 -1.78125 3.296875 -1.53125 C 3.003906 -1.289062 2.609375 -1.171875 2.109375 -1.171875 L 1.140625 -1.171875 L 1.140625 0 L 0.578125 0 L 0.578125 -3.890625 Z M 2.09375 -1.65625 C 2.4375 -1.65625 2.703125 -1.726562 2.890625 -1.875 C 3.078125 -2.03125 3.171875 -2.25 3.171875 -2.53125 C 3.171875 -2.8125 3.078125 -3.023438 2.890625 -3.171875 C 2.703125 -3.328125 2.4375 -3.40625 2.09375 -3.40625 L 1.140625 -3.40625 L 1.140625 -1.65625 Z M 2.09375 -1.65625 "/></g></g></g><g fill="#000000" fill-opacity="1"><g transform="translate(69.96593, 33.75256)"><g><path d="M 2.109375 -3.890625 C 2.609375 -3.890625 3.003906 -3.769531 3.296875 -3.53125 C 3.585938 -3.289062 3.734375 -2.957031 3.734375 -2.53125 C 3.734375 -2.113281 3.585938 -1.78125 3.296875 -1.53125 C 3.003906 -1.289062 2.609375 -1.171875 2.109375 -1.171875 L 1.140625 -1.171875 L 1.140625 0 L 0.578125 0 L 0.578125 -3.890625 Z M 2.09375 -1.65625 C 2.4375 -1.65625 2.703125 -1.726562 2.890625 -1.875 C 3.078125 -2.03125 3.171875 -2.25 3.171875 -2.53125 C 3.171875 -2.8125 3.078125 -3.023438 2.890625 -3.171875 C 2.703125 -3.328125 2.4375 -3.40625 2.09375 -3.40625 L 1.140625 -3.40625 L 1.140625 -1.65625 Z M 2.09375 -1.65625 "/></g></g></g></svg>