<svg xmlns="http://www.w3.org/2000/svg" fill="none" viewBox="0 0 24 24">
  <path fill="white" fill-rule="evenodd" d="M2.25 12c0-5.383 4.367-9.75 9.75-9.75s9.75 4.367 9.75 9.75-4.367 9.75-9.75 9.75S2.25 17.383 2.25 12ZM12 3.75A8.252 8.252 0 0 0 3.75 12 8.252 8.252 0 0 0 12 20.25 8.252 8.252 0 0 0 20.25 12 8.252 8.252 0 0 0 12 3.75Z" clip-rule="evenodd"/>
  <path fill="white" d="m16.438 7.075-5.494 2.197a3 3 0 0 0-1.672 1.672l-2.197 5.494a.375.375 0 0 0 .487.487l5.494-2.197a3.002 3.002 0 0 0 1.672-1.672l2.197-5.494a.376.376 0 0 0-.487-.487ZM12 13.125a1.125 1.125 0 1 1 0-2.25 1.125 1.125 0 0 1 0 2.25Z"/>
</svg>