 <svg xmlns="http://www.w3.org/2000/svg"  fill="none" viewBox="0 0 24 24" stroke-width="1" stroke="currentColor">
      <path
        d="M10.103 22.767a1.146 1.146 0 00.971.2l9.067-2.2c.245-.06.463-.197.619-.39.156-.193.24-.432.24-.677V4.299a1.08 1.08 0 00-.24-.677 1.137 1.137 0 00-.62-.39l-9.066-2.2a1.17 1.17 0 00-.97.202 1.11 1.11 0 00-.321.384c-.076.15-.116.314-.116.48v1.1H5.133c-.3 0-.589.117-.801.323A1.084 1.084 0 004 4.3v15.4c0 .293.12.572.332.779.212.206.5.322.801.322h4.534v1.1c0 .339.16.659.436.867zm1.83-19.259l6.8 1.65v13.683l-6.8 1.65V3.508zM6.267 18.6V5.399h3.4v13.2h-3.4z"
        fill="#444"
      />
      <path
        d="M14.242 13.159c.446-.112.758-.512.758-.971v-.377a1 1 0 10-2 .001v.377a1 1 0 001.242.97z"
        fill="#444"
      />
    </svg>





